<svg width="470" height="101" viewBox="0 0 470 101" fill="none" xmlns="http://www.w3.org/2000/svg">
<path d="M125.76 13.895H107.158C106.747 13.895 106.413 14.2277 106.413 14.638V42.2449C106.413 42.6552 106.747 42.9879 107.158 42.9879H125.76C126.171 42.9879 126.504 42.6552 126.504 42.2449V14.638C126.504 14.2277 126.171 13.895 125.76 13.895Z" fill="#1C1A1A"/>
<path d="M125.76 57.2703H107.158C106.746 57.2703 106.413 57.6029 106.413 58.0133V86.3631C106.413 86.7735 106.746 87.1061 107.158 87.1061H125.76C126.171 87.1061 126.504 86.7735 126.504 86.3631V58.0133C126.504 57.6029 126.171 57.2703 125.76 57.2703Z" fill="#1C1A1A"/>
<path d="M469.255 0H450.63C450.219 0 449.885 0.33265 449.885 0.742994V86.164C449.885 86.5744 450.219 86.907 450.63 86.907H469.255C469.667 86.907 470 86.5744 470 86.164V0.742994C470 0.33265 469.667 0 469.255 0Z" fill="#1C1A1A"/>
<path d="M294.215 12.365C273.147 12.365 256.045 29.4655 256.045 50.5015C256.045 71.5375 273.519 88.6147 294.96 88.6147C308.676 88.6147 318.46 82.6011 322.974 79.0371C322.974 79.0371 323.602 78.5379 322.974 77.8994C322.974 77.8994 312.108 67.0447 312.061 67.0099C311.759 66.7196 311.387 66.8357 311.119 67.0099C306.791 70.0167 301.905 71.5143 296.449 71.5143C284.966 71.5143 278.393 64.3746 277.079 57.2465H329.547C329.547 57.2465 330.163 57.2697 330.291 56.6776C330.489 55.7372 330.861 52.9278 330.861 48.969C330.861 28.1304 315.074 12.365 294.204 12.365H294.215ZM276.916 42.9903C279.359 34.7361 285.932 29.4655 294.017 29.4655H294.215C302.487 29.4655 309.06 34.7128 310.572 42.9903H276.904H276.916Z" fill="#1C1A1A"/>
<path d="M41.9277 12.3843C28.0139 12.3843 20.3124 22.7049 20.3124 22.9023V14.6481C20.3124 14.2302 19.975 13.9051 19.5678 13.9051H0.744554C0.337376 13.9051 0 14.2418 0 14.6481V100.255C0 100.673 0.337376 100.998 0.744554 100.998H19.5678C19.975 100.998 20.3124 100.661 20.3124 100.255V78.1276C20.7661 78.7313 28.4327 88.6108 41.9045 88.6108C61.2745 88.6108 77.0614 71.5335 77.0614 50.4975C77.0614 29.4615 61.2745 12.3843 41.9277 12.3843ZM38.1701 70.3958C28.0371 70.3958 20.3124 61.7701 20.3124 50.3002C20.3124 38.8302 28.0255 30.2045 38.1701 30.2045C48.3146 30.2045 56.0277 38.8302 56.0277 50.3002C56.0277 61.7701 48.3146 70.3958 38.1701 70.3958Z" fill="#1C1A1A"/>
<path d="M204.171 12.365H203.973C190.804 12.365 183.114 22.7089 183.114 22.9062V14.652C183.114 14.2341 182.777 13.909 182.369 13.909H163.558C163.151 13.909 162.813 14.2457 162.813 14.652V86.3625C162.813 86.7804 163.151 87.1055 163.558 87.1055H182.369C182.777 87.1055 183.114 86.7688 183.114 86.3625V48.9923C183.114 38.3001 188.768 31.915 197.982 31.915C206.253 31.915 212.268 38.1028 212.268 46.7401V86.3741C212.268 86.7804 212.605 87.1171 213.012 87.1171H231.812C232.22 87.1171 232.557 86.7804 232.557 86.3741V44.4762C232.557 24.9611 221.482 12.3766 204.171 12.3766V12.365Z" fill="#1C1A1A"/>
<path d="M386.714 12.2227C369.415 12.2227 359.631 23.8435 357.758 26.0725C357.491 26.4208 357.525 26.7807 357.758 27.0129L367.914 37.1594C367.914 37.1594 368.531 37.7631 369.054 37.1594C370.369 35.4644 375.627 30.217 385.039 30.217C392.752 30.217 397.813 34.3499 397.813 40.735L374.685 44.8679C361.144 47.3059 353.07 55.7574 353.07 67.5989C353.07 79.4404 363.598 88.4376 377.698 88.4376C389.925 88.4376 397.441 79.8119 397.813 79.4404V86.2086C397.813 86.6265 398.15 86.9516 398.557 86.9516H417.369C417.776 86.9516 418.114 86.6149 418.114 86.2086V41.3271C418.114 24.424 404.944 12.2343 386.714 12.2343V12.2227ZM397.603 55.5601C397.603 65.7066 391.949 71.8943 382.759 71.8943C374.662 71.8943 372.975 67.9472 372.975 64.5573C372.975 60.227 375.988 57.2434 381.246 56.3031L397.603 53.2963V55.5601Z" fill="#1C1A1A"/>
</svg>
